<!--?xml version="1.0" standalone="no"?-->
<svg id="sw-js-blob-svg" viewBox="0 0 100 100" xmlns="http://www.w3.org/2000/svg">
    <defs>
        <linearGradient id="sw-gradient" x1="0" x2="1" y1="1" y2="0">
            <stop id="stop1" stop-color="rgba(0, 15, 82, 1)" offset="0%"></stop>
            <stop id="stop2" stop-color="rgba(255, 204, 113, 1)" offset="100%"></stop>
        </linearGradient>
    </defs>
    <path fill="url(#sw-gradient)" d="M21.9,-26.4C27.6,-21.3,31,-13.7,33.6,-5C36.2,3.7,38.1,13.4,35.1,21.9C32.1,30.5,24.3,38,15.7,39.6C7,41.3,-2.5,37.2,-11.8,33.4C-21.1,29.6,-30.1,26.1,-35.8,19.2C-41.4,12.4,-43.8,2.1,-41.1,-6.3C-38.5,-14.7,-30.9,-21.2,-23.2,-25.9C-15.5,-30.7,-7.8,-33.6,0.2,-33.8C8.1,-34,16.2,-31.4,21.9,-26.4Z" width="100%" height="100%" transform="translate(50 50)" stroke-width="0" style="transition: all 0.3s ease 0s;"></path>
</svg>