<svg xmlns="http://www.w3.org/2000/svg" xmlns:svgjs="http://svgjs.com/svgjs" xmlns:xlink="http://www.w3.org/1999/xlink" width="288" height="288"><svg xmlns="http://www.w3.org/2000/svg" width="288" height="288" data-name="Layer 1" viewBox="0 0 64 64"><path fill="#ffcc71" d="M47 13H36.31l4.411-1.176a4.839 4.839 0 1 0-5.612-6.761L32 11.573l-3.109-6.51a4.839 4.839 0 1 0-5.612 6.761L27.69 13H17v5H47zM23.793 9.892A2.84 2.84 0 0 1 22.34 5.335a2.782 2.782 0 0 1 2.166-1.027 2.879 2.879 0 0 1 .369.023 2.789 2.789 0 0 1 2.211 1.594l2.651 5.551zM36.914 5.925a2.789 2.789 0 0 1 2.211-1.594 2.879 2.879 0 0 1 .369-.023 2.84 2.84 0 0 1 2.686 3.7 2.791 2.791 0 0 1-1.973 1.881l-5.944 1.584zM12 47H2V62H12zM8 59H6V57H8zM22.254 59.9L26.2 61.039a10.277 10.277 0 0 0 2.843.4H34.67a10.309 10.309 0 0 0 4.281-.932l10.215-4.669A10.367 10.367 0 0 0 52.942 52.9l8.6-10.729A2.091 2.091 0 0 0 61.3 39.3l-.243-.216a2.061 2.061 0 0 0-2.741.005l-9.7 8.656a10.323 10.323 0 0 1-3.023 1.877L38.178 52.6a2.061 2.061 0 0 1-2.233-.461l-2.14-2.153 8.032-3.395a5.9 5.9 0 0 0 2.05-2.062 2.079 2.079 0 0 0-2.133-3.121L30.611 43.385a10.323 10.323 0 0 0-3.687 1.425l-4.057 2.551a10.3 10.3 0 0 1-5.485 1.583H14V60l4.38-.441A10.323 10.323 0 0 1 22.254 59.9z" class="color000 svgShape"/><rect width="11" height="16" x="19" y="20" fill="#ffcc71" class="color000 svgShape"/><rect width="11" height="16" x="34" y="20" fill="#ffcc71" class="color000 svgShape"/></svg></svg>