<svg xmlns="http://www.w3.org/2000/svg" xmlns:svgjs="http://svgjs.com/svgjs" xmlns:xlink="http://www.w3.org/1999/xlink" width="288" height="288"><svg xmlns="http://www.w3.org/2000/svg" width="288" height="288" data-name="Layer 1" viewBox="0 0 512 512"><path fill="#ffcc71" d="M0 300.8V448a64.08 64.08 0 0064 64H211.2V328.82l-28.83-28zM162.77 175.6a74.23 74.23 0 0148.43-21.76V0H64A64.08 64.08 0 000 64V211.2H143A74.36 74.36 0 01162.77 175.6zM300.8 328.84V512H448a64.08 64.08 0 0064-64V300.8H329.64zM448 0H300.8V153.82a74.71 74.71 0 0168.29 57.38H512V64A64.08 64.08 0 00448 0zM332.8 228.68A36.65 36.65 0 00296.25 192h0a36.35 36.35 0 00-25.86 10.74L256 217.23 241.59 202.7a36.5 36.5 0 00-51.64 0 36.76 36.76 0 000 51.89L256 318.82l66.16-64.31A36.48 36.48 0 00332.8 228.68z" class="color231f20 svgShape"/></svg></svg>